PathFileType	4	(X/Y/Z)	/Users/niels/Desktop/University/Third Semester/Perception and Action/Exam/Gymnastics Motion Tracking/Code for Gym Tracking/Analyzed Data/Webcam_Backflip/id1_1_trajectory_Sports2D/id1_1_trajectory_Sports2D_px_person00.trc
DataRate	CameraRate	NumFrames	NumMarkers	Units	OrigDataRate	OrigDataStartFrame	OrigNumFrames
29.874476987447697	29.874476987447697	10	22	m	29.874476987447697	119	239
Frame#	Time	Hip			RHip			RKnee			RAnkle			RBigToe			RSmallToe			RHeel			LHip			LKnee			LAnkle			LBigToe			LSmallToe			LHeel			Neck			Head			Nose			RShoulder			RElbow			RWrist			LShoulder			LElbow			LWrist		
		X1	Y1	Z1	X2	Y2	Z2	X3	Y3	Z3	X4	Y4	Z4	X5	Y5	Z5	X6	Y6	Z6	X7	Y7	Z7	X8	Y8	Z8	X9	Y9	Z9	X10	Y10	Z10	X11	Y11	Z11	X12	Y12	Z12	X13	Y13	Z13	X14	Y14	Z14	X15	Y15	Z15	X16	Y16	Z16	X17	Y17	Z17	X18	Y18	Z18	X19	Y19	Z19	X20	Y20	Z20	X21	Y21	Z21	X22	Y22	Z22
119	3.9833333333333334	0.8416261621065341	-0.5729341916514816	0.0	0.8403998957844657	-0.57130383856329	0.0	0.857886596220956	-0.6767348708601865	0.0	0.8521473065276541	-0.7953483780614362	0.0	0.9003449428804853	-0.813726310508068	0.0	0.8904747620854664	-0.81737234248036	0.0	0.8402206192721321	-0.8132064486167567	0.0	0.8459907182988812	-0.5716678220604829	0.0	0.8410088922461549	-0.678864901898604	0.0	0.8290767256658094	-0.7950233015673408	0.0	0.8796879946037254	-0.8127455847875464	0.0	0.8716227876074534	-0.8089790546645246	0.0	0.8210211359088669	-0.8108233753859705	0.0	0.8514327383843435	-0.4102942985554927	0.0	0.8982980418968283	-0.34784345037435915	0.0	0.8986370693117937	-0.3936610190129687	0.0	0.8245612854908863	-0.422136162042143	0.0	0.7754835593775374	-0.48318752945361926	0.0	0.7791030088253478	-0.5582284767637002	0.0	0.8532799725762089	-0.43010718465001524	0.0	0.8654770027298608	-0.45491884673247335	0.0	0.9009199968721291	-0.413311006857708	0.0
120	4.016806722689076	0.8413902154806744	-0.5761180629110477	0.0	0.8408233110721001	-0.5751452284762508	0.0	0.8581397157567008	-0.6805534503385948	0.0	0.8528316061661445	-0.7993172270029465	0.0	0.9002927369596598	-0.8163722261671149	0.0	0.8907642929443979	-0.8198400579048686	0.0	0.8401193260140112	-0.8170193748643326	0.0	0.8454208234669831	-0.5754580096124505	0.0	0.8404980533202899	-0.6827210552754195	0.0	0.8286452841397233	-0.7990623829154093	0.0	0.8806167432261894	-0.815882730680302	0.0	0.8716967421686553	-0.8115565080323195	0.0	0.8209229513706974	-0.8143537753345998	0.0	0.851032934398327	-0.41306070638178427	0.0	0.8968280037679942	-0.35185488645719337	0.0	0.8983901550608024	-0.39781846787609687	0.0	0.8245879277857208	-0.425399732114158	0.0	0.7753678722826819	-0.48541446091161866	0.0	0.777534380860317	-0.5605139981683593	0.0	0.8525085272054694	-0.43302141365049507	0.0	0.8638971442688304	-0.45803474593991633	0.0	0.89827557958187	-0.416166934355665	0.0
121	4.050280112044818	0.8412292901984152	-0.5807655472962171	0.0	0.8410112664776257	-0.5803705296096281	0.0	0.8582608332972899	-0.6858633792135271	0.0	0.8533095653995322	-0.8047147559213579	0.0	0.9001656101820108	-0.8204064066866209	0.0	0.8909149873400269	-0.8237338628442725	0.0	0.8398751674950963	-0.8221706848863344	0.0	0.8450307290681328	-0.5806304043216347	0.0	0.8403562107993119	-0.6880452325084446	0.0	0.8284163946507325	-0.8044217521482282	0.0	0.882135357572896	-0.8201376309728776	0.0	0.8724822176287578	-0.8153769912385603	0.0	0.820726493133831	-0.8193341819281869	0.0	0.8507032278361267	-0.41767728340504756	0.0	0.8954002777280466	-0.35746054528834437	0.0	0.8980342576483265	-0.4037504448974624	0.0	0.8247744438118809	-0.43052883097066524	0.0	0.7756907962053222	-0.48985046202422605	0.0	0.7771807842293744	-0.565051463049417	0.0	0.8518800354748395	-0.4375879719043043	0.0	0.8622162368064439	-0.4635453518705756	0.0	0.8957583348745037	-0.42163845130665606	0.0
122	4.08375350140056	0.8410628689232205	-0.5863791589048941	0.0	0.8408387601233996	-0.5863813879339447	0.0	0.8582255860593498	-0.692092280732176	0.0	0.8534492250108354	-0.8108679845066009	0.0	0.8999542901348463	-0.8254318466289808	0.0	0.8907633099739845	-0.8286478613599066	0.0	0.8395117024530272	-0.8279797334585748	0.0	0.8447190552116883	-0.5866076339905353	0.0	0.84048035666879	-0.6943000979731795	0.0	0.8284282476896019	-0.8105323764134861	0.0	0.8838194126584581	-0.8252051705034015	0.0	0.8737738276925693	-0.8201433478968928	0.0	0.8205045545704273	-0.8251942110433158	0.0	0.8505070254316635	-0.4236186940475101	0.0	0.8941777256198767	-0.3640278783237968	0.0	0.8976404881181604	-0.41076240545028725	0.0	0.825142452836027	-0.4369933225984258	0.0	0.7764648340555121	-0.4961654395349342	0.0	0.7781444704487006	-0.5715337297827542	0.0	0.8513675854311825	-0.4433563728238721	0.0	0.8604454728639532	-0.471233073829724	0.0	0.8937495345655367	-0.4299520775636572	0.0
123	4.117226890756302	0.8408111490226696	-0.5923768345645887	0.0	0.8403577147570822	-0.592592612507408	0.0	0.8580358731797879	-0.6986478913781408	0.0	0.8532443453517615	-0.8170990655578785	0.0	0.8995834005708975	-0.8308612919886497	0.0	0.8901761061155281	-0.8339833018543891	0.0	0.8391125078653952	-0.8337634862443417	0.0	0.8443741142855596	-0.5928316848533947	0.0	0.8407066477107542	-0.7008966302965569	0.0	0.8286058735156395	-0.8168348823788268	0.0	0.8851821354426551	-0.8306463272014842	0.0	0.8751763283103213	-0.8253588180438913	0.0	0.8202543103327556	-0.831314734809199	0.0	0.8504991677207772	-0.4302099905465239	0.0	0.8932065734950208	-0.37091406120973636	0.0	0.8972752746815912	-0.4181016399021696	0.0	0.8256760248469713	-0.4441572934582687	0.0	0.7777591442320662	-0.5038595865725165	0.0	0.7804262092295989	-0.5793749136603294	0.0	0.8509475806723094	-0.44977792656872834	0.0	0.8584309709449517	-0.4809499603897557	0.0	0.8923131068862882	-0.4416505046607665	0.0
124	4.150700280112044	0.8404073962362831	-0.5981449429206729	0.0	0.839694612784322	-0.5984443128281792	0.0	0.8577299957478799	-0.7048814376380124	0.0	0.8527840021904572	-0.8227774613443678	0.0	0.898931736858184	-0.8360139198764384	0.0	0.8890582780892984	-0.8390541479713506	0.0	0.8387910867397509	-0.8388823718004478	0.0	0.8439284687530364	-0.5987392773585148	0.0	0.8408750775552453	-0.7071714651150601	0.0	0.8288086873941396	-0.8227731841642031	0.0	0.8857824751180708	-0.8358795251791875	0.0	0.8762181846934578	-0.8303889527229318	0.0	0.8198940541878544	-0.8370652528737434	0.0	0.8506871577822808	-0.43674437943979966	0.0	0.8925228089624512	-0.3775018112498566	0.0	0.8970048591764482	-0.4250471899768057	0.0	0.8262996320844579	-0.45133990626535536	0.0	0.7796312282173143	-0.5122542269911409	0.0	0.7838994643419798	-0.5877768334466742	0.0	0.850606403878625	-0.45626417076770454	0.0	0.8558998779828243	-0.4924484902334243	0.0	0.891164787514345	-0.45740610572421103	0.0
125	4.184173669467787	0.8398217433570387	-0.6031506327865117	0.0	0.8389649056042313	-0.6034444066494666	0.0	0.8573773767868039	-0.7101493491040888	0.0	0.8522146842821648	-0.8273903881874004	0.0	0.8979841034619714	-0.8403291045548034	0.0	0.8874795676382649	-0.8432974781610173	0.0	0.8386609325402664	-0.8428418040306661	0.0	0.8433788475885233	-0.6038020272562783	0.0	0.8408975491791222	-0.7124785232173008	0.0	0.8289042616261882	-0.8278333228129754	0.0	0.8853841842387188	-0.8403434995005379	0.0	0.8765402633858498	-0.8346532820139551	0.0	0.8193574780997287	-0.8418903806957468	0.0	0.8510250533790085	-0.44258441650159613	0.0	0.8921721187278059	-0.383244445874406	0.0	0.896876634973771	-0.43101281589243745	0.0	0.82690226932024	-0.457864340225494	0.0	0.7820386976951507	-0.5205219913659694	0.0	0.7883115785248451	-0.5958401586244728	0.0	0.85034110410553	-0.46222649107649993	0.0	0.8525915324023587	-0.5051194395076228	0.0	0.8896738183268631	-0.47757962482982236	0.0
126	4.2176470588235295	0.8390976177736894	-0.6069978187888206	0.0	0.8382639040589477	-0.6072055917642635	0.0	0.8570376655661954	-0.7139676009049165	0.0	0.8517004176805684	-0.8306082225334154	0.0	0.8969684697274193	-0.843495971127325	0.0	0.8858211536328638	-0.8464256577750736	0.0	0.8387948207239078	-0.8454167064720062	0.0	0.8427698624349622	-0.6075959066637426	0.0	0.8407779964126197	-0.7163463436564356	0.0	0.8288304531333619	-0.8315900422032754	0.0	0.8841363406633826	-0.8436392274802148	0.0	0.8761158602610944	-0.837772853288667	0.0	0.818683113842605	-0.8453978591148983	0.0	0.8514377543570459	-0.4472134433279562	0.0	0.8921455749196749	-0.38770896696916873	0.0	0.8969070100028351	-0.4355666443431044	0.0	0.8273934044570384	-0.4631219586661174	0.0	0.7847916516536864	-0.5278031159827574	0.0	0.7933095457224756	-0.6027060544418993	0.0	0.8501411499104096	-0.46710248717619407	0.0	0.8483888204559489	-0.5177849194879377	0.0	0.8869040666387931	-0.5016774918159388	0.0
127	4.251120448179272	0.8383636531545251	-0.6093973169323745	0.0	0.8376612837212963	-0.6094545367181079	0.0	0.8567136705918657	-0.7161051264536447	0.0	0.8513574634392784	-0.8322911206153618	0.0	0.8962833692798756	-0.8453942741488101	0.0	0.8846801445134755	-0.8483622694610493	0.0	0.8391679573612373	-0.8466712420032434	0.0	0.8421827786713286	-0.6098415666764092	0.0	0.8405850628973643	-0.718561264359191	0.0	0.8286244122187493	-0.8337469539011874	0.0	0.8825928625218223	-0.8455307310476257	0.0	0.8753237277816588	-0.8395704752541436	0.0	0.8180114008851083	-0.8473849923540433	0.0	0.8518529717679408	-0.45024566873402666	0.0	0.8923700134066198	-0.39058640663542593	0.0	0.897079179583475	-0.4383966278124958	0.0	0.8277129292140368	-0.4666387524038139	0.0	0.787582129865051	-0.5333463975740484	0.0	0.7984777652229356	-0.6076759211598316	0.0	0.8499905009114171	-0.4703952961552454	0.0	0.8434973400310024	-0.5287843781471807	0.0	0.8818901973485295	-0.5279563963112112	0.0
128	4.284593837535014	0.8377680210604093	-0.6101620438029403	0.0	0.8371631388683084	-0.610053928345459	0.0	0.8563539445066753	-0.7165407978339497	0.0	0.8512049932625916	-0.8324432936572218	0.0	0.8962477166120606	-0.8459780159431474	0.0	0.8845185110306449	-0.8490739828383985	0.0	0.8396490741422784	-0.8468125592862502	0.0	0.8416891087942431	-0.6104335924259111	0.0	0.8403872766045393	-0.7191118449012437	0.0	0.8284027431344477	-0.8341773301125857	0.0	0.8814378766987118	-0.8459198555859376	0.0	0.8747332561924487	-0.8399992959988071	0.0	0.817502691718438	-0.8478109500440401	0.0	0.8522261340184599	-0.4514473186888973	0.0	0.8927575232485225	-0.3917021654852956	0.0	0.8973216594826986	-0.43932389170140496	0.0	0.8277998631893126	-0.468134095430187	0.0	0.7900717834068217	-0.5366273567297818	0.0	0.8033689076155611	-0.6102738111656182	0.0	0.8499184839435059	-0.471771342624331	0.0	0.8384835972361042	-0.5365184247281641	0.0	0.8740738230018373	-0.5535212808829227	0.0
